<svg width="187" height="27" viewBox="0 0 187 27" fill="none" xmlns="http://www.w3.org/2000/svg">
<path d="M32.51 7.514V12.882H40.232V14.774H32.51V21H30.31V5.6H41.178V7.514H32.51ZM50.6548 21.176C48.6015 21.176 47.0028 20.5893 45.8588 19.416C44.7148 18.2427 44.1428 16.556 44.1428 14.356V5.6H46.3428V14.268C46.3428 17.568 47.7875 19.218 50.6768 19.218C52.0848 19.218 53.1628 18.8147 53.9108 18.008C54.6588 17.1867 55.0328 15.94 55.0328 14.268V5.6H57.1668V14.356C57.1668 16.5707 56.5948 18.2647 55.4508 19.438C54.3068 20.5967 52.7082 21.176 50.6548 21.176ZM64.4559 7.514H59.1759V5.6H71.9139V7.514H66.6339V21H64.4559V7.514ZM80.4107 21.176C78.3574 21.176 76.7587 20.5893 75.6147 19.416C74.4707 18.2427 73.8987 16.556 73.8987 14.356V5.6H76.0987V14.268C76.0987 17.568 77.5434 19.218 80.4327 19.218C81.8407 19.218 82.9187 18.8147 83.6667 18.008C84.4147 17.1867 84.7887 15.94 84.7887 14.268V5.6H86.9227V14.356C86.9227 16.5707 86.3507 18.2647 85.2067 19.438C84.0627 20.5967 82.464 21.176 80.4107 21.176ZM101.729 21L98.407 16.27C97.9964 16.2993 97.6737 16.314 97.439 16.314H93.633V21H91.433V5.6H97.439C99.4337 5.6 101.003 6.07667 102.147 7.03C103.291 7.98333 103.863 9.296 103.863 10.968C103.863 12.156 103.57 13.168 102.983 14.004C102.396 14.84 101.56 15.4487 100.475 15.83L104.127 21H101.729ZM97.373 14.444C98.7664 14.444 99.8297 14.1433 100.563 13.542C101.296 12.9407 101.663 12.0827 101.663 10.968C101.663 9.85333 101.296 9.00267 100.563 8.416C99.8297 7.81467 98.7664 7.514 97.373 7.514H93.633V14.444H97.373ZM118.593 19.086V21H107.417V5.6H118.285V7.514H109.617V12.244H117.339V14.114H109.617V19.086H118.593ZM134.07 5.6C136.065 5.6 137.634 6.07667 138.778 7.03C139.922 7.98333 140.494 9.296 140.494 10.968C140.494 12.64 139.922 13.9527 138.778 14.906C137.634 15.8593 136.065 16.336 134.07 16.336H130.264V21H128.064V5.6H134.07ZM134.004 14.422C135.397 14.422 136.461 14.1287 137.194 13.542C137.927 12.9407 138.294 12.0827 138.294 10.968C138.294 9.85333 137.927 9.00267 137.194 8.416C136.461 7.81467 135.397 7.514 134.004 7.514H130.264V14.422H134.004ZM152.765 17.15H144.581L142.887 21H140.621L147.595 5.6H149.773L156.769 21H154.459L152.765 17.15ZM151.995 15.39L148.673 7.844L145.351 15.39H151.995ZM161.35 7.514H156.07V5.6H168.808V7.514H163.528V21H161.35V7.514ZM184.449 5.6V21H182.249V14.136H173.405V21H171.205V5.6H173.405V12.222H182.249V5.6H184.449Z" fill="white"/>
<path d="M7.8413 4C11.3799 4.2439 18.3627 4.87805 17.9853 5.46341C17.6402 5.99854 9.64584 12.5534 4.6715 16.594C4.08089 17.0737 3.19481 16.7415 3.06066 15.9925L1.68533 8.31402C1.50307 7.29648 2.79604 6.70501 3.44671 7.50827L14.9541 21.7141C15.5552 22.4562 16.7552 22.0139 16.7308 21.0592L16.5 12" stroke="white" stroke-width="2" stroke-linecap="round"/>
</svg>
